<svg 
    width="29" 
    height="21" 
    viewBox="0 0 29 21" 
    fill="none" 
    xmlns="http://www.w3.org/2000/svg"
>
<path 
    d="M7.65845 6.51654C8.60043 6.51654 9.36468 5.75229 9.36468 4.8103C9.36468 3.86832 8.60043 3.10406 7.65845 3.10406C6.71646 3.10406 5.95221 3.86832 5.95221 4.8103C5.95221 5.75229 6.71646 6.51654 7.65845 6.51654ZM7.65845 12.204C8.60043 12.204 9.36468 11.4397 9.36468 10.4978C9.36468 9.55577 8.60043 8.79152 7.65845 8.79152C6.71646 8.79152 5.95221 9.55577 5.95221 10.4978C5.95221 11.4397 6.71646 12.204 7.65845 12.204ZM9.36468 16.1852C9.36468 15.2432 8.60043 14.479 7.65845 14.479C6.71646 14.479 5.95221 15.2432 5.95221 16.1852C5.95221 17.1272 6.71646 17.8915 7.65845 17.8915C8.60043 17.8915 9.36468 17.1272 9.36468 16.1852ZM13.3459 6.51654C14.2879 6.51654 15.0521 5.75229 15.0521 4.8103C15.0521 3.86832 14.2879 3.10406 13.3459 3.10406C12.4039 3.10406 11.6397 3.86832 11.6397 4.8103C11.6397 5.75229 12.4039 6.51654 13.3459 6.51654ZM15.0521 10.4978C15.0521 9.55577 14.2879 8.79152 13.3459 8.79152C12.4039 8.79152 11.6397 9.55577 11.6397 10.4978C11.6397 11.4397 12.4039 12.204 13.3459 12.204C14.2879 12.204 15.0521 11.4397 15.0521 10.4978ZM13.3459 17.8915C14.2879 17.8915 15.0521 17.1272 15.0521 16.1852C15.0521 15.2432 14.2879 14.479 13.3459 14.479C12.4039 14.479 11.6397 15.2432 11.6397 16.1852C11.6397 17.1272 12.4039 17.8915 13.3459 17.8915Z" 
    fill="var(--rlm-icon-color, #333333)"
/>
</svg>