<svg width="250" height="250" viewBox="0 0 250 250" fill="none" xmlns="http://www.w3.org/2000/svg">
<rect width="250" height="250" rx="24" fill="#81D9FF"/>
<path d="M169 138.467V111.867C169 108.718 171.434 106.167 174.438 106.167H191.598H192.3C195.448 106.167 198 108.719 198 111.867V111.867V138.467C198 141.615 195.566 144.167 192.562 144.167H174.438C171.434 144.167 169 141.615 169 138.467Z" fill="#55B8E3"/>
<path d="M52 138.467V111.867C52 108.718 54.4342 106.167 57.4375 106.167H74.5984H75.3C78.448 106.167 81 108.719 81 111.867V111.867V138.467C81 141.615 78.5658 144.167 75.5625 144.167H57.4375C54.4342 144.167 52 141.615 52 138.467Z" fill="#55B8E3"/>
<path d="M155 125.167H172" stroke="#55B8E3" stroke-width="4"/>
<path d="M77 125.167H94" stroke="#55B8E3" stroke-width="4"/>
<path d="M93.6666 152.583V97.75C93.6666 91.2601 98.9267 86 105.417 86H142.5H144.583C151.073 86 156.333 91.2607 156.333 97.75V97.75V152.583C156.333 159.073 151.073 164.333 144.583 164.333H105.417C98.9267 164.333 93.6666 159.073 93.6666 152.583Z" fill="#1486B8"/>
<path d="M109 115.167H133" stroke="#81D9FF" stroke-width="6" stroke-linecap="round"/>
<path d="M109 125.167H133" stroke="#81D9FF" stroke-width="6" stroke-linecap="round"/>
<path d="M109 135.167H127" stroke="#81D9FF" stroke-width="6" stroke-linecap="round"/>
</svg>